/* XPM */
static char * boostrap_xpm[] = {
"24 24 137 2",
"  	c None",
". 	c #525556",
"+ 	c #59595A",
"@ 	c #5F6162",
"# 	c #6C6F71",
"$ 	c #676A6B",
"% 	c #595C5D",
"& 	c #515354",
"* 	c #4C4E4E",
"= 	c #474949",
"- 	c #464849",
"; 	c #3F4041",
"> 	c #5B5C5B",
", 	c #555453",
"' 	c #4F4F4F",
") 	c #4C4C4D",
"! 	c #424242",
"~ 	c #303030",
"{ 	c #333334",
"] 	c #333435",
"^ 	c #4A4A4A",
"/ 	c #505050",
"( 	c #4C4D4D",
"_ 	c #454647",
": 	c #47494A",
"< 	c #535557",
"[ 	c #545658",
"} 	c #666A6C",
"| 	c #74797B",
"1 	c #65686A",
"2 	c #5C5F61",
"3 	c #525455",
"4 	c #4B4D4E",
"5 	c #3E3F3F",
"6 	c #2A2B2B",
"7 	c #252526",
"8 	c #0F0F0F",
"9 	c #585B5C",
"0 	c #373737",
"a 	c #3F3F3F",
"b 	c #383838",
"c 	c #323232",
"d 	c #2D2D2D",
"e 	c #353636",
"f 	c #323334",
"g 	c #303132",
"h 	c #111112",
"i 	c #373939",
"j 	c #454646",
"k 	c #393939",
"l 	c #313131",
"m 	c #282828",
"n 	c #2E2F2F",
"o 	c #565A5C",
"p 	c #1B1C1C",
"q 	c #424445",
"r 	c #343434",
"s 	c #2F2F2F",
"t 	c #272727",
"u 	c #212121",
"v 	c #202020",
"w 	c #4D5051",
"x 	c #47494B",
"y 	c #494C4D",
"z 	c #010101",
"A 	c #494A4C",
"B 	c #2A2A2A",
"C 	c #292929",
"D 	c #1F1F1F",
"E 	c #1A1A1A",
"F 	c #232323",
"G 	c #575B5D",
"H 	c #0A0A0A",
"I 	c #242424",
"J 	c #29292A",
"K 	c #181818",
"L 	c #151515",
"M 	c #141515",
"N 	c #161818",
"O 	c #141415",
"P 	c #131415",
"Q 	c #000000",
"R 	c #222222",
"S 	c #222323",
"T 	c #141414",
"U 	c #121212",
"V 	c #020202",
"W 	c #515456",
"X 	c #5A5D5F",
"Y 	c #1C1C1C",
"Z 	c #1B1B1B",
"` 	c #202121",
" .	c #111111",
"..	c #2E2F30",
"+.	c #1E1F20",
"@.	c #434546",
"#.	c #101010",
"$.	c #212223",
"%.	c #1A1A1B",
"&.	c #494D4E",
"*.	c #5D6063",
"=.	c #111212",
"-.	c #2F3132",
";.	c #3E4141",
">.	c #1E1E1F",
",.	c #090909",
"'.	c #6D7274",
").	c #131314",
"!.	c #46494A",
"~.	c #0C0C0D",
"{.	c #3C3E3F",
"].	c #484B4C",
"^.	c #414345",
"/.	c #464949",
"(.	c #616566",
"_.	c #383A3C",
":.	c #64686A",
"<.	c #292B2C",
"[.	c #3D3F40",
"}.	c #151616",
"|.	c #191A1B",
"1.	c #070606",
"2.	c #090A0A",
"3.	c #070808",
"4.	c #65696B",
"5.	c #3B3D3E",
"6.	c #1C1E1E",
"7.	c #484A4C",
"8.	c #0B0C0C",
"9.	c #141516",
"0.	c #030303",
"a.	c #131414",
"b.	c #101111",
"c.	c #161717",
"d.	c #282929",
"e.	c #0C0D0D",
"f.	c #0F1010",
"                                                ",
"                                                ",
"        . + @                                   ",
"        # $ % & * = - ;                         ",
"        > , ' ) ! ~ { ]                         ",
"        ^ / ( _ : < [ }                         ",
"      | 1 2 3 4 5 6 7 8                         ",
"    9 0 a b c d e f g h                         ",
"    i j k l m n o     p                         ",
"    q r s t u v w x y z                         ",
"    A B C D E F G     H                         ",
"    ~ I J K L M N O P Q                         ",
"    B R S T U V Q Q Q Q W                       ",
"  X Y Z `  .Q Q Q Q Q ..  +.:                   ",
"  @.#.$.%.Q Q Q Q Q Q &.*.=.  -.;.              ",
"  >.,.@.Q Q Q Q Q Q #.'.).!.  ~.  {.].          ",
"^./.(._.Q Q Q Q Q Q Q Q ,.:.<.[.  }.Q |.X       ",
"y 1.V Q Q Q Q Q Q Q Q Q Q 2.3.4.5.Q Q Q Q 6.    ",
"7.H Q Q Q Q Q Q Q Q Q Q Q Q Q 2.8.Q Q Q Q Q 9.  ",
"].Q Q Q Q Q Q Q Q Q Q Q Q Q Q Q Q Q Q Q Q Q 0.  ",
"  a.b.b.b.b.b.b.b.b.b.b.b.b.b.b.b.b.b.b.b.#.c.  ",
"d.e.f.f.f.f.f.f.f.f.f.f.f.f.f.f.f.f.f.f.f.f.8 M ",
"                                                ",
"                                                "};
