/* XPM */
static char * census_xpm[] = {
"24 24 248 2",
"  	c None",
". 	c #000000",
"+ 	c #010000",
"@ 	c #030101",
"# 	c #282F2F",
"$ 	c #000606",
"% 	c #290000",
"& 	c #1C0000",
"* 	c #5F0000",
"= 	c #260000",
"- 	c #840000",
"; 	c #B10000",
"> 	c #2F0000",
", 	c #830000",
"' 	c #800000",
") 	c #CC0000",
"! 	c #C10000",
"~ 	c #270000",
"{ 	c #000D0D",
"] 	c #5B0000",
"^ 	c #FD0000",
"/ 	c #E00000",
"( 	c #730000",
"_ 	c #060000",
": 	c #550D0D",
"< 	c #DE0000",
"[ 	c #CE0000",
"} 	c #4D0000",
"| 	c #110E0D",
"1 	c #B30303",
"2 	c #B30000",
"3 	c #30030B",
"4 	c #000001",
"5 	c #181816",
"6 	c #141217",
"7 	c #2A3542",
"8 	c #3A0000",
"9 	c #770000",
"0 	c #182C4B",
"a 	c #2F2B4F",
"b 	c #191919",
"c 	c #121212",
"d 	c #0B0B0B",
"e 	c #010101",
"f 	c #050504",
"g 	c #AFAFDB",
"h 	c #BDBCF2",
"i 	c #060F16",
"j 	c #3A3B55",
"k 	c #4F4F8B",
"l 	c #020206",
"m 	c #080808",
"n 	c #494949",
"o 	c #09090A",
"p 	c #CACAFF",
"q 	c #AEAEE8",
"r 	c #191A21",
"s 	c #060E1F",
"t 	c #525187",
"u 	c #46467F",
"v 	c #0D0D2B",
"w 	c #070704",
"x 	c #404041",
"y 	c #070707",
"z 	c #707070",
"A 	c #898989",
"B 	c #595958",
"C 	c #4D4D6D",
"D 	c #9D9DD7",
"E 	c #636382",
"F 	c #6F6FA3",
"G 	c #54548E",
"H 	c #090929",
"I 	c #F3F3F3",
"J 	c #FFFFFF",
"K 	c #AAAAAA",
"L 	c #0A0A0A",
"M 	c #A7A7A7",
"N 	c #727271",
"O 	c #5C5C7E",
"P 	c #9B9BDB",
"Q 	c #4E4E95",
"R 	c #212143",
"S 	c #050500",
"T 	c #A5A5A5",
"U 	c #181818",
"V 	c #CDCDCD",
"W 	c #545454",
"X 	c #383838",
"Y 	c #FDFDFD",
"Z 	c #BEBEBE",
"` 	c #ECECEC",
" .	c #0E0E09",
"..	c #1F1F2F",
"+.	c #444476",
"@.	c #30311C",
"#.	c #00001A",
"$.	c #343329",
"%.	c #DDDDDE",
"&.	c #040404",
"*.	c #D3D3D3",
"=.	c #565656",
"-.	c #3E3E3E",
";.	c #F6F6F6",
">.	c #646464",
",.	c #7F7F7C",
"'.	c #00000C",
").	c #595D00",
"!.	c #FFFC00",
"~.	c #1C1000",
"{.	c #2B303C",
"].	c #A9A9A9",
"^.	c #252525",
"/.	c #C7C7C7",
"(.	c #D5D5D5",
"_.	c #FAFAFA",
":.	c #FBFBFA",
"<.	c #4D535C",
"[.	c #220E00",
"}.	c #FBF202",
"|.	c #FFFF00",
"1.	c #E5AE00",
"2.	c #151108",
"3.	c #8D939E",
"4.	c #D6D6D5",
"5.	c #A0A0A0",
"6.	c #050505",
"7.	c #2B2B2B",
"8.	c #9FA0A0",
"9.	c #DEDEDE",
"0.	c #C6C5C0",
"a.	c #616774",
"b.	c #9A8D00",
"c.	c #F6EB00",
"d.	c #FFDE00",
"e.	c #5E4700",
"f.	c #00000B",
"g.	c #020202",
"h.	c #303030",
"i.	c #2A1300",
"j.	c #8C6800",
"k.	c #FFFA00",
"l.	c #FCFF00",
"m.	c #FCF300",
"n.	c #FFCA00",
"o.	c #FFC803",
"p.	c #8E5E12",
"q.	c #644A00",
"r.	c #080600",
"s.	c #000003",
"t.	c #2F2802",
"u.	c #B58C01",
"v.	c #FFEB02",
"w.	c #FBFF00",
"x.	c #FDFF00",
"y.	c #FCD400",
"z.	c #FECA00",
"A.	c #EDB900",
"B.	c #E4AC00",
"C.	c #F4B501",
"D.	c #BA8B00",
"E.	c #4E3300",
"F.	c #131720",
"G.	c #030500",
"H.	c #FBF805",
"I.	c #DCCE09",
"J.	c #A1AC00",
"K.	c #C1C900",
"L.	c #FCF400",
"M.	c #FFCC00",
"N.	c #FFCD00",
"O.	c #987200",
"P.	c #826100",
"Q.	c #6E4800",
"R.	c #A86C0E",
"S.	c #82510E",
"T.	c #121100",
"U.	c #BB9E04",
"V.	c #33150C",
"W.	c #694800",
"X.	c #7B6500",
"Y.	c #5F6A00",
"Z.	c #F3C500",
"`.	c #F6C300",
" +	c #5A4700",
".+	c #503402",
"++	c #1A0715",
"@+	c #1F0A14",
"#+	c #250F14",
"$+	c #1B1102",
"%+	c #1E1A00",
"&+	c #4C3A03",
"*+	c #634D00",
"=+	c #AF8600",
"-+	c #746116",
";+	c #6C5A15",
">+	c #734F00",
",+	c #3C2500",
"'+	c #1F120D",
")+	c #1B1B19",
"!+	c #151918",
"~+	c #0C1010",
"{+	c #34343F",
"]+	c #B5B7F2",
"^+	c #999BD3",
"/+	c #8E94D9",
"(+	c #3C3D6E",
"_+	c #0B0900",
":+	c #6F5100",
"<+	c #6E5000",
"[+	c #060300",
"}+	c #141614",
"|+	c #1D212A",
"1+	c #2F2E4D",
"2+	c #35356A",
"3+	c #38386F",
"4+	c #14142C",
"5+	c #030305",
"6+	c #71719F",
"7+	c #7777B4",
"8+	c #6C6CA4",
"9+	c #7272AA",
"0+	c #6767A5",
"a+	c #212254",
"b+	c #0E1135",
"c+	c #0E1138",
"d+	c #232444",
"e+	c #313150",
"f+	c #383874",
"g+	c #373772",
"h+	c #36366F",
"i+	c #3D3D7B",
"j+	c #181834",
"k+	c #171712",
"l+	c #000004",
"m+	c #02020F",
"n+	c #02020E",
"o+	c #01010D",
"p+	c #02020D",
"q+	c #0E0E1D",
"r+	c #131323",
"s+	c #131322",
"t+	c #0E0E20",
"u+	c #0D0D1E",
"v+	c #0B0B17",
"w+	c #0C0C18",
"x+	c #0D0D1A",
"y+	c #06060C",
"                  . .     . . + .               ",
"                  @ . # $ % & .                 ",
"                  . * = - ; > .                 ",
"                  . , ' ) ! ~ .                 ",
"                  { ] ^ / ( _                   ",
"                    : < [ } .                   ",
"                  | . 1 2 3 4 5     . .         ",
"      . . .     . 6 7 8 9 0 a .       b c       ",
"    d e         f g h i . j k l . .     m       ",
"    n   . . . . o p q r s t u v w x m .         ",
"      . y z A B . C D E F G H . I J K L         ",
"    . m M J J J N . O P Q R S T U V J W .       ",
"    . X J Y Z ` J  ...+.@.#.$.%.&.*.J =..       ",
"    . -.J ;.. >.J ,.'.).!.~.{.J J J ].d .       ",
"    ^.d /.J (._.:.<.[.}.|.1.2.3.4.5.6..         ",
"      e 7.8.9.0.a.. b.|.c.d.e.'.f.. . g.        ",
"      h.. . . . i.j.k.l.m.n.o.p.q.r..           ",
"        g.s.t.u.v.|.w.x.y.z.A.B.C.D.E.F.        ",
"          G.H.I.J.K.|.L.M.N.O.P.Q.R.S.4         ",
"          T.U.V.W.X.Y.Z.`. +.+++. @+#+.         ",
"        4 . $+%+&+*+=+-+;+>+,+'+)+!+~+.         ",
"        . {+]+^+/+(+_+:+<+[+}+|+1+2+3+4+        ",
"      5+. 6+7+8+9+0+a+b+c+d+e+f+g+h+i+j+k+      ",
"      . . l+m+n+o+p+q+r+s+t+u+v+v+w+x+y+.       "};
