/* XPM */
static char * PDx_Pop_xpm[] = {
"24 24 28 1",
" 	c None",
".	c #333399",
"+	c #66CC33",
"@	c #323299",
"#	c #333398",
"$	c #65CB32",
"%	c #323199",
"&	c #69D62C",
"*	c #38438E",
"=	c #69D52D",
"-	c #39458C",
";	c #69D52C",
">	c #363C92",
",	c #66CD32",
"'	c #63C338",
")	c #302B9E",
"!	c #66CE31",
"~	c #62C239",
"{	c #2E24A2",
"]	c #65CB33",
"^	c #312D9C",
"/	c #49776B",
"(	c #68D22E",
"_	c #4C7F66",
":	c #67D12F",
"<	c #32319A",
"[	c #4D8164",
"}	c #66CD31",
" .....    .....         ",
" .......  ........      ",
" ..  .... ..  ..... +   ",
" ..   .@. ..    @..     ",
" ..   ... ..    ..#. +  ",
" ..    .. ..     #..    ",
" ..   @.# ..     ... $+ ",
" ..  .@.  ..     %..    ",
" .#..#.   ..    &*.. $  ",
" ..       ..    =-.# $$ ",
" ..       ..    ;>#  +  ",
" ..       ..    ,') !+  ",
" ..       ..    ~;{ ]   ",
" ..       ..   ^/(_:    ",
" ..       .....<[}}]    ",
" ..       .....# }+     ",
"                 ]++    ",
"                + ++    ",
"                +  +$  +",
"               $    +++ ",
"               $+       ",
"              $+        ",
"               +        ",
"                        "};
