/* XPM */
static char * pirana_xpm[] = {
"24 24 9 1",
" 	c None",
".	c #F47F0E",
"+	c #F47F0D",
"@	c #F47E0C",
"#	c #F47E0D",
"$	c #F37E0D",
"%	c #F37E0C",
"&	c #F37F0D",
"*	c #F47F0C",
"                        ",
"                        ",
"                        ",
"        .               ",
"    +++@@++++   @+@+@.  ",
"   ##$++++++#  +++++    ",
"  ++% ++++++&+*++++*    ",
" $++#&&++++++++++++     ",
" +@+++++++++++++++#     ",
"   +++++++++++++++      ",
"    %++++++++++++*      ",
"    +++++++++++++*      ",
"    %++++++++++++*      ",
"   +++++++++++++++      ",
" +%*++++++++++++++      ",
" ++++++++++++++++++     ",
"  ++++++++++&+*+++#+    ",
"   @@+++++++#  ++++$    ",
"    +&*@@&+++   +&*@@   ",
"        &           +   ",
"                        ",
"                        ",
"                        ",
"                        "};
