/* XPM */
static char * plt_xpm[] = {
"24 24 143 2",
"  	c None",
". 	c #F4FCFC",
"+ 	c #FC6B6B",
"@ 	c #FF2626",
"# 	c #FE2828",
"$ 	c #FE2929",
"% 	c #FF2929",
"& 	c #FF8D8D",
"* 	c #FFFFFF",
"= 	c #FE4B4B",
"- 	c #FE5555",
"; 	c #F8B0B0",
"> 	c #FF2121",
", 	c #FE2F2F",
"' 	c #FE3333",
") 	c #FE3636",
"! 	c #FE2D2D",
"~ 	c #FE1A1A",
"{ 	c #FF8181",
"] 	c #FF2C2C",
"^ 	c #FE0000",
"/ 	c #FE8C8C",
"( 	c #FF7B7B",
"_ 	c #FF3030",
": 	c #FFB6B6",
"< 	c #FF2F2F",
"[ 	c #FFCECE",
"} 	c #FE6363",
"| 	c #FF6E6E",
"1 	c #FF1010",
"2 	c #FE5B5B",
"3 	c #FF6262",
"4 	c #F7ADAD",
"5 	c #FFF0F0",
"6 	c #FF2E2E",
"7 	c #FF3535",
"8 	c #FAE1E1",
"9 	c #FF0101",
"0 	c #FE6969",
"a 	c #FE4545",
"b 	c #FE1515",
"c 	c #FE3232",
"d 	c #FF1C1C",
"e 	c #FFB9B9",
"f 	c #F79393",
"g 	c #FF0000",
"h 	c #FE8383",
"i 	c #FF2D2D",
"j 	c #FF4242",
"k 	c #FF4949",
"l 	c #FF1515",
"m 	c #FE3E3E",
"n 	c #FE1E1E",
"o 	c #FF3838",
"p 	c #FF0B0B",
"q 	c #FFE2E2",
"r 	c #FE2B2B",
"s 	c #FE4242",
"t 	c #FE4848",
"u 	c #FF1414",
"v 	c #FF0303",
"w 	c #FE5858",
"x 	c #FF4E4E",
"y 	c #FF5A5A",
"z 	c #FED8D8",
"A 	c #FF3333",
"B 	c #FFF7F7",
"C 	c #FFECEC",
"D 	c #F8F1F1",
"E 	c #FF4747",
"F 	c #FF1313",
"G 	c #FFEFEF",
"H 	c #FF3232",
"I 	c #FFEAEA",
"J 	c #FF0202",
"K 	c #FE3F3F",
"L 	c #FF3434",
"M 	c #FD6262",
"N 	c #F9CECE",
"O 	c #FE4C4C",
"P 	c #FF1919",
"Q 	c #FE5656",
"R 	c #FF5656",
"S 	c #FE6666",
"T 	c #FE2222",
"U 	c #FE1C1C",
"V 	c #FE0E0E",
"W 	c #FF4F4F",
"X 	c #FE7A7A",
"Y 	c #D8D8D8",
"Z 	c #787878",
"` 	c #444444",
" .	c #939393",
"..	c #C2C2C2",
"+.	c #656565",
"@.	c #707070",
"#.	c #8C8C8C",
"$.	c #DFDFDF",
"%.	c #6B6B6B",
"&.	c #828282",
"*.	c #BDBDBD",
"=.	c #949494",
"-.	c #858585",
";.	c #6E6E6E",
">.	c #7D7D7D",
",.	c #E1E1E1",
"'.	c #575757",
").	c #555555",
"!.	c #515151",
"~.	c #5D5D5D",
"{.	c #848484",
"].	c #616161",
"^.	c #6F6F6F",
"/.	c #727272",
"(.	c #9D9D9D",
"_.	c #E0E0E0",
":.	c #6C6C6C",
"<.	c #464646",
"[.	c #989898",
"}.	c #525252",
"|.	c #4E4E4E",
"1.	c #A6A6A6",
"2.	c #626262",
"3.	c #606060",
"4.	c #494949",
"5.	c #ADADAD",
"6.	c #969696",
"7.	c #9B9B9B",
"8.	c #7F7F7F",
"9.	c #AFAFAF",
"0.	c #585858",
"a.	c #636363",
"b.	c #797979",
"c.	c #BCBCBC",
"d.	c #7C7C7C",
"e.	c #B4B4B4",
"f.	c #878787",
"g.	c #7B7B7B",
"h.	c #666666",
"i.	c #B1B1B1",
"j.	c #C3C3C3",
"k.	c #A9A9A9",
"l.	c #9F9F9F",
"                                                ",
"                                                ",
"                                                ",
"                                                ",
"  . + @ # $ % & *   = -       ; > , ' ) ! ~ {   ",
"    ] ^ / ( _ ^ :   ~ <       [ } | 1 ^ 2 3 4   ",
"  5 6 7     8 9 0   , a             = b         ",
"  5 c d e   f g h   i j             k l         ",
"  5 m g n o p # q   r s             t u         ",
"  5 o v w x y z     , a             t u         ",
"  5 ! A             , c B   C D     E F         ",
"  G ' H I           @ J m K L M N   O P         ",
"    Q R             S T d U V W     X E         ",
"                                                ",
"                                                ",
"                                                ",
"    Y Z `  ...+.@.#.$.%.+.&.*.=.*   -.;.>.,.    ",
"        '.  ).%.  !.~.{.  ~.].^.    ` /.(._.    ",
"        :.  <.[.  }.|.1.  2.3.4.    5.6.4.7.    ",
"        8.  9.0.%./...a.+.b.c.4.d.e.f.g.h.i.    ",
"              e.j.      k.            l.e.      ",
"                                                ",
"                                                ",
"                                                "};
