/* XPM */
static char * w_xpm[] = {
"24 24 2 1",
" 	c None",
".	c #DC0909",
"                        ",
"                        ",
"                        ",
"                        ",
"  ...      ..       ..  ",
"  ...      ...     ...  ",
"  ....    ....     ...  ",
"   ...    ....    ...   ",
"   ...   .....    ...   ",
"   ...   .....    ...   ",
"    ...  .....   ...    ",
"    ... .......  ...    ",
"    ... ... ...  ..     ",
"     ...... ... ...     ",
"     .....  ... ..      ",
"     .....   .....      ",
"     ....    .....      ",
"      ...    ....       ",
"      ...    ....       ",
"      ...     ..        ",
"                        ",
"                        ",
"                        ",
"                        "};
