/* XPM */
static char * xmind_single_xpm[] = {
"24 24 365 2",
"  	c None",
". 	c #ADCDCF",
"+ 	c #B5D4D6",
"@ 	c #ABCED1",
"# 	c #A0C9CB",
"$ 	c #92C1C5",
"% 	c #85BBBF",
"& 	c #7AB5B9",
"* 	c #6BADB2",
"= 	c #5DA3A9",
"- 	c #4D9BA0",
"; 	c #45959B",
"> 	c #3F9298",
", 	c #3C8E95",
"' 	c #2C848A",
") 	c #1C7A80",
"! 	c #0B6E74",
"~ 	c #006169",
"{ 	c #005258",
"] 	c #C2D8D9",
"^ 	c #DBEBED",
"/ 	c #D7E9EC",
"( 	c #C6E1E5",
"_ 	c #B7D8DD",
": 	c #A7D1D5",
"< 	c #99C9CE",
"[ 	c #8CC2C7",
"} 	c #7EB9C0",
"| 	c #67ADB4",
"1 	c #52A0A8",
"2 	c #4399A0",
"3 	c #349097",
"4 	c #298790",
"5 	c #187D85",
"6 	c #037078",
"7 	c #00646C",
"8 	c #005B62",
"9 	c #00565E",
"0 	c #004D54",
"a 	c #CADFE0",
"b 	c #EBF5F7",
"c 	c #D5EBED",
"d 	c #B2D5DB",
"e 	c #ABD2D7",
"f 	c #A0CED2",
"g 	c #80BCC2",
"h 	c #58A7AE",
"i 	c #35939C",
"j 	c #13808A",
"k 	c #00747E",
"l 	c #006D76",
"m 	c #00636D",
"n 	c #005C66",
"o 	c #005861",
"p 	c #00545E",
"q 	c #00535B",
"r 	c #00525A",
"s 	c #005259",
"t 	c #004C53",
"u 	c #B5D0D2",
"v 	c #E7F3F5",
"w 	c #D1E8EB",
"x 	c #BCDCE0",
"y 	c #AAD2D7",
"z 	c #9ECDD2",
"A 	c #73B6BC",
"B 	c #1F8A92",
"C 	c #006C76",
"D 	c #00646F",
"E 	c #005D68",
"F 	c #005B66",
"G 	c #005B65",
"H 	c #005A64",
"I 	c #005963",
"J 	c #005862",
"K 	c #005860",
"L 	c #00555E",
"M 	c #00535C",
"N 	c #005159",
"O 	c #004F57",
"P 	c #004C52",
"Q 	c #CCE0E2",
"R 	c #D7EBEE",
"S 	c #BFDDE1",
"T 	c #B8D8DD",
"U 	c #B4D7DB",
"V 	c #76B3B9",
"W 	c #0D7A83",
"X 	c #007079",
"Y 	c #00646E",
"Z 	c #005F6A",
"` 	c #00616D",
" .	c #00606B",
"..	c #005E69",
"+.	c #00565F",
"@.	c #00525C",
"#.	c #00515A",
"$.	c #004D56",
"%.	c #004C54",
"&.	c #004E54",
"*.	c #C5DFE1",
"=.	c #BCDCE1",
"-.	c #F1F8F8",
";.	c #FCFEFE",
">.	c #EDF4F4",
",.	c #F3F6F6",
"'.	c #FFFFFF",
").	c #80BEC2",
"!.	c #00505C",
"~.	c #004F59",
"{.	c #004A54",
"].	c #004852",
"^.	c #00444F",
"/.	c #00434C",
"(.	c #004952",
"_.	c #003F44",
":.	c #B6D6DA",
"<.	c #A7D2D6",
"[.	c #9AC8CE",
"}.	c #F6FAFB",
"|.	c #FDFFFF",
"1.	c #BBDDDF",
"2.	c #00515D",
"3.	c #005560",
"4.	c #006770",
"5.	c #006F77",
"6.	c #006971",
"7.	c #006970",
"8.	c #004E58",
"9.	c #003036",
"0.	c #002327",
"a.	c #A4CED1",
"b.	c #9CCBD0",
"c.	c #7AB8BF",
"d.	c #78B4B9",
"e.	c #FEFEFD",
"f.	c #FAFEFE",
"g.	c #FBFDFD",
"h.	c #017E86",
"i.	c #003C49",
"j.	c #004F5A",
"k.	c #004D58",
"l.	c #00434E",
"m.	c #A4C3C5",
"n.	c #FAFAFA",
"o.	c #E8EFF0",
"p.	c #E6EFEF",
"q.	c #FDFCFC",
"r.	c #005B60",
"s.	c #000106",
"t.	c #00282D",
"u.	c #90C2C6",
"v.	c #63ABB2",
"w.	c #2A8E94",
"x.	c #F8FAFB",
"y.	c #F5FBFB",
"z.	c #DAECED",
"A.	c #00737B",
"B.	c #003F4A",
"C.	c #003D49",
"D.	c #003F49",
"E.	c #BED2D3",
"F.	c #000308",
"G.	c #002D31",
"H.	c #7FB9BD",
"I.	c #7BB9BE",
"J.	c #2C8D95",
"K.	c #004B55",
"L.	c #004450",
"M.	c #97C7CB",
"N.	c #F7FBFA",
"O.	c #F6F9F8",
"P.	c #8EBFC2",
"Q.	c #64A7AB",
"R.	c #9EC1C3",
"S.	c #FFFBFB",
"T.	c #20898E",
"U.	c #001117",
"V.	c #002F33",
"W.	c #6FAFB4",
"X.	c #65ACB2",
"Y.	c #00737A",
"Z.	c #00444E",
"`.	c #004954",
" +	c #003844",
".+	c #003440",
"++	c #529CA1",
"@+	c #FFFDFE",
"#+	c #FFFBFC",
"$+	c #F5F5F6",
"%+	c #098085",
"&+	c #00565C",
"*+	c #004047",
"=+	c #001119",
"-+	c #00151B",
";+	c #00161C",
">+	c #003035",
",+	c #5AA2A8",
"'+	c #469AA0",
")+	c #00545D",
"!+	c #00424C",
"~+	c #006D74",
"{+	c #51999E",
"]+	c #83B1B5",
"^+	c #DEE1E2",
"/+	c #F7F1F2",
"(+	c #FFFEFE",
"_+	c #ECEFEF",
":+	c #F1F1F1",
"<+	c #FDF7F7",
"[+	c #66A8AC",
"}+	c #001C24",
"|+	c #000000",
"1+	c #00161D",
"2+	c #00181F",
"3+	c #003337",
"4+	c #44959B",
"5+	c #0D7C83",
"6+	c #00636A",
"7+	c #A4BDBF",
"8+	c #FBF0F0",
"9+	c #FFFCFC",
"0+	c #91C0C3",
"a+	c #00474E",
"b+	c #004048",
"c+	c #00666B",
"d+	c #98C0C3",
"e+	c #F4F1F2",
"f+	c #E5EAEB",
"g+	c #F6EFF0",
"h+	c #005F65",
"i+	c #00030B",
"j+	c #003438",
"k+	c #218489",
"l+	c #207E84",
"m+	c #DFDADB",
"n+	c #F5F3F4",
"o+	c #C8D5D7",
"p+	c #001D25",
"q+	c #000009",
"r+	c #000D16",
"s+	c #00060F",
"t+	c #001019",
"u+	c #107C80",
"v+	c #F7F3F3",
"w+	c #E2E9E9",
"x+	c #FFFAFA",
"y+	c #06757A",
"z+	c #000309",
"A+	c #001217",
"B+	c #00363A",
"C+	c #087479",
"D+	c #5D9B9F",
"E+	c #FFFAFB",
"F+	c #EDEBED",
"G+	c #EFEBEB",
"H+	c #21878C",
"I+	c #00050E",
"J+	c #001A22",
"K+	c #00141D",
"L+	c #000005",
"M+	c #37898D",
"N+	c #EDEDEE",
"O+	c #E7EBEC",
"P+	c #FEF8F8",
"Q+	c #004F54",
"R+	c #000107",
"S+	c #00373C",
"T+	c #15787D",
"U+	c #006A70",
"V+	c #005E65",
"W+	c #005D64",
"X+	c #004348",
"Y+	c #004045",
"Z+	c #00232B",
"`+	c #001921",
" @	c #001018",
".@	c #002830",
"+@	c #FFEEEE",
"@@	c #F7F3F4",
"#@	c #F3F2F3",
"$@	c #98C1C3",
"%@	c #00050B",
"&@	c #003539",
"*@	c #137479",
"=@	c #002B32",
"-@	c #000A10",
";@	c #00141B",
">@	c #001B22",
",@	c #001B23",
"'@	c #001C23",
")@	c #001820",
"!@	c #00131A",
"~@	c #B5C5C7",
"{@	c #FEF7F8",
"]@	c #FFF9FA",
"^@	c #CEE1E2",
"/@	c #001216",
"(@	c #003638",
"_@	c #02676C",
":@	c #004248",
"<@	c #003137",
"[@	c #00181D",
"}@	c #001419",
"|@	c #00181E",
"1@	c #001920",
"2@	c #001A21",
"3@	c #00171D",
"4@	c #002C33",
"5@	c #003E44",
"6@	c #003A40",
"7@	c #00393F",
"8@	c #003B3F",
"9@	c #002E33",
"0@	c #00161A",
"a@	c #004E50",
"b@	c #00595E",
"c@	c #00373D",
"d@	c #00252A",
"e@	c #001015",
"f@	c #001519",
"g@	c #00151A",
"h@	c #00171C",
"i@	c #00171E",
"j@	c #00191F",
"k@	c #000E15",
"l@	c #00080E",
"m@	c #00090F",
"n@	c #00070D",
"o@	c #00060B",
"p@	c #003437",
"q@	c #276567",
"r@	c #00494D",
"s@	c #002E32",
"t@	c #000F13",
"u@	c #001317",
"v@	c #001318",
"w@	c #001319",
"x@	c #001218",
"y@	c #000F14",
"z@	c #000B10",
"A@	c #002E31",
"B@	c #125E60",
"C@	c #003439",
"D@	c #00181C",
"E@	c #000F12",
"F@	c #001418",
"G@	c #00171B",
"H@	c #001B1F",
"I@	c #001C20",
"J@	c #001E22",
"K@	c #001F24",
"L@	c #002025",
"M@	c #002126",
"N@	c #002227",
"O@	c #002228",
"P@	c #002428",
"Q@	c #002D30",
"R@	c #004547",
"S@	c #1B6061",
"T@	c #001D20",
"U@	c #001214",
"V@	c #001D1E",
"W@	c #002325",
"X@	c #00272A",
"                                                ",
"          . + @ # $ % & * = - ; > , ' ) ! ~ {   ",
"      ] ^ / ( _ : < [ } | 1 2 3 4 5 6 7 8 9 0   ",
"    a b c ( d e f g h i j k l m n o p q r s t   ",
"  u v w x y z A B C D E F G H I J K L M N O P   ",
"  Q R S T U V W X Y Z `  ...n H o +.@.#.$.%.&.  ",
"  *.=.U -.;.>.,.'.).!...G I J ~.{.].^./.(.%._.  ",
"  :.<.[.}.|.|.|.|.1.2.3.J 3.p 4.5.6.7.~ 8.9.0.  ",
"  a.b.c.d.e.|.f.|.g.h.i.j.k.l.m.n.o.p.q.r.s.t.  ",
"  u.[ v.8.w.x.|.y.|.z.A.B.C.D.E.|.|.|.|._.F.G.  ",
"  H.I.J.K.L.l M.'.N.'.O.P.Q.R.S.'.'.q.T.U.U.V.  ",
"  W.X.Y.Z.`. +.+++'.@+#+'.'.'.$+%+&+*+=+-+;+>+  ",
"  ,+'+)+!+~+{+]+^+S./+(+'._+:+<+[+}+|+1+2+-+3+  ",
"  4+5+6+7+8+9+'.0+a+b+c+d+'.e+f+'.g+h+i+-+;+j+  ",
"  k+l+m+'.n+S.o+p+q+r+s+t+u+9+v+w+x+'.y+z+A+B+  ",
"  C+D+E+F+G+x+H+I+J+p+}+K+L+M+'.N+O+P+'.Q+R+S+  ",
"  T+U+V+W+X+Y+Z+`+}+}+}+p+ @.@+@9+@@#@'.$@%@&@  ",
"  *@t =@p+%@-@;@>@>@,@,@'@)@!@~@'.{@]@'.^@/@(@  ",
"  _@:@<@[@}@|@|@2+1@1@`+`+2@3@4@5@6@7@8@9@0@a@  ",
"  b@c@d@e@f@g@;+h@i@|@2+|@2+j@k@l@m@n@o@|+p@q@  ",
"  r@s@0@t@u@A+v@v@w@}@}@w@w@v@v@x@A+y@z@A@B@    ",
"  C@D@E@F@G@H@I@J@K@L@M@N@O@0.P@P@P@Q@R@S@      ",
"  T@U@V@W@X@                                    ",
"                                                "};
